<?xml version="1.0" encoding="UTF-8" standalone="no"?>
<svg
   xmlns:dc="http://purl.org/dc/elements/1.1/"
   xmlns:cc="http://creativecommons.org/ns#"
   xmlns:rdf="http://www.w3.org/1999/02/22-rdf-syntax-ns#"
   xmlns:svg="http://www.w3.org/2000/svg"
   xmlns="http://www.w3.org/2000/svg"
   height="28.000244"
   width="48"
   id="svg16"
   xml:space="preserve"
   enable-background="new 0 0 52 52"
   viewBox="0 0 48 28.000244"
   y="0px"
   x="0px"
   version="1.1"><metadata
     id="metadata22"><rdf:RDF><cc:Work
         rdf:about=""><dc:format>image/svg+xml</dc:format><dc:type
           rdf:resource="http://purl.org/dc/dcmitype/StillImage" /><dc:title></dc:title></cc:Work></rdf:RDF></metadata><defs
     id="defs20" /><g
     transform="translate(-2,-11.999878)"
     id="g10"><path
       id="path2"
       d="M 49.270019,18.719849 44.359985,13.039856 C 43.779968,12.379883 42.959961,11.999878 42.089966,11.999878 H 5 c -1.6500244,0 -3,1.349976 -3,3 v 13 h 48 v -7.320007 c 0,-0.710022 -0.26001,-1.409974 -0.729981,-1.960022 z M 14,23.999878 c 0,1.099976 -0.900024,2 -2,2 H 8 c -1.1099854,0 -2,-0.900024 -2,-2 v -6 c 0,-1.109985 0.8900146,-2 2,-2 h 4 c 1.099976,0 2,0.890015 2,2 z m 10,0 c 0,1.099976 -0.900024,2 -2,2 h -4 c -1.109985,0 -2,-0.900024 -2,-2 v -6 c 0,-1.109985 0.890015,-2 2,-2 h 4 c 1.099976,0 2,0.890015 2,2 z m 10,0 c 0,1.099976 -0.900024,2 -2,2 h -4 c -1.109985,0 -2,-0.900024 -2,-2 v -6 c 0,-1.109985 0.890015,-2 2,-2 h 4 c 1.099976,0 2,0.890015 2,2 z m 11,1 c 0,0.549988 -0.450012,1 -1,1 h -7 c -0.559998,0 -1,-0.450012 -1,-1 v -8 c 0,-0.559998 0.440002,-1 1,-1 h 3.709961 c 0.290039,0 0.570007,0.119995 0.75,0.339966 L 44.75,20.149902 c 0.159973,0.179993 0.25,0.409973 0.25,0.649964 z" /><path
       id="path4"
       d="m 11.999756,34.000122 c -1.654297,0 -3.0000001,1.345703 -3.0000001,3 0,0.212402 0.018555,0.410156 0.061523,0.604492 0.2792969,1.388184 1.5156251,2.395508 2.9384771,2.395508 1.423828,0 2.660156,-1.007324 2.947266,-2.428711 0.03418,-0.158203 0.05273,-0.355957 0.05273,-0.571289 0,-1.654297 -1.345703,-3 -3,-3 z" /><path
       id="path6"
       d="m 2,35.999878 c 0,1.099976 0.8999634,2 2,2 H 7.0999756 C 7.0299683,37.679871 7,37.339844 7,36.999878 c 0,-2.76001 2.2399902,-5 5,-5 2.76001,0 5,2.23999 5,5 0,0.339966 -0.03003,0.679993 -0.100037,1 H 35.099976 C 35.029968,37.679871 35,37.339844 35,36.999878 c 0,-2.76001 2.23999,-5 5,-5 2.76001,0 5,2.23999 5,5 0,0.339966 -0.03003,0.679993 -0.100037,1 H 48 c 1.099976,0 2,-0.900024 2,-2 v -6 H 2 Z" /><path
       id="path8"
       d="m 39.999756,34.000122 c -1.654297,0 -3,1.345703 -3,3 0,0.212402 0.01855,0.410156 0.06152,0.604492 0.279297,1.388184 1.515625,2.395508 2.938477,2.395508 1.423828,0 2.660156,-1.007324 2.947265,-2.428711 0.03418,-0.158203 0.05273,-0.355957 0.05273,-0.571289 0,-1.654297 -1.345703,-3 -3,-3 z" /></g></svg>