<?xml version="1.0" encoding="UTF-8" standalone="no"?>
<svg
   xmlns:dc="http://purl.org/dc/elements/1.1/"
   xmlns:cc="http://creativecommons.org/ns#"
   xmlns:rdf="http://www.w3.org/1999/02/22-rdf-syntax-ns#"
   xmlns:svg="http://www.w3.org/2000/svg"
   xmlns="http://www.w3.org/2000/svg"
   version="1.1"
   x="0px"
   y="0px"
   viewBox="0 0 48.0047 19.995789"
   enable-background="new 0 0 52 52"
   xml:space="preserve"
   id="svg20"
   width="48.0047"
   height="19.995789"><metadata
     id="metadata26"><rdf:RDF><cc:Work
         rdf:about=""><dc:format>image/svg+xml</dc:format><dc:type
           rdf:resource="http://purl.org/dc/dcmitype/StillImage" /><dc:title></dc:title></cc:Work></rdf:RDF></metadata><defs
     id="defs24" /><g
     id="g18"
     transform="matrix(-1,0,0,1,50.00235,-16.002106)"><path
       d="M 48.99765,33.997894 H 2.9976501 c -0.5522461,0 -1,0.447754 -1,1 0,0.552246 0.4477539,1 1,1 H 48.99765 c 0.552246,0 1,-0.447754 1,-1 0,-0.552246 -0.447754,-1 -1,-1 z"
       id="path2" /><circle
       cx="11.002533"
       cy="31.002289"
       r="2"
       id="circle4" /><circle
       cx="21.002533"
       cy="31.002289"
       r="2"
       id="circle6" /><circle
       cx="41.002533"
       cy="31.002289"
       r="2"
       id="circle8" /><path
       d="m 2.0023499,30.492096 v 1.51001 h 5.1400146 c -0.080017,-0.320008 -0.1400146,-0.649964 -0.1400146,-1 0,-2.209961 1.7900391,-4 4.0000001,-4 2.200012,0 4,1.790039 4,4 0,0.350036 -0.06,0.679992 -0.139954,1 h 2.279969 c -0.08002,-0.320008 -0.140015,-0.649964 -0.140015,-1 0,-2.209961 1.790039,-4 4,-4 2.200012,0 4,1.790039 4,4 0,0.350036 -0.06,0.679992 -0.139954,1 h 2.279969 c -0.08002,-0.320008 -0.140015,-0.649964 -0.140015,-1 0,-2.209961 1.790039,-4 4,-4 2.200012,0 4,1.790039 4,4 0,0.350036 -0.06,0.679992 -0.139953,1 h 2.279968 c -0.08002,-0.320008 -0.140015,-0.649964 -0.140015,-1 0,-2.209961 1.790039,-4 4,-4 2.200012,0 4,1.790039 4,4 0,0.350036 -0.06,0.679992 -0.139953,1 h 5.139953 v -6 H 2.7123718 c -0.4699707,1.450012 -0.7100219,2.960022 -0.7100219,4.48999 z"
       id="path10" /><circle
       cx="31.002533"
       cy="31.002289"
       r="2"
       id="circle12" /><path
       d="m 16.492401,16.002106 c -5.490051,0 -10.4999999,3.119995 -12.9400023,8 H 50.00235 v -8 z"
       id="path14" /><path
       d="M 3.2623596,24.592133 C 3.3523865,24.39212 3.4423523,24.192108 3.5523987,24.002106 H 3.5223694 Z"
       id="path16" /></g></svg>